<svg width="107" height="24" fill="none" xmlns="http://www.w3.org/2000/svg"><path d="M34.379 8.353a.86.86 0 01-.234.279.51.51 0 01-.297.081.818.818 0 01-.414-.135 7.907 7.907 0 00-.522-.315 4.057 4.057 0 00-.72-.306 2.88 2.88 0 00-.963-.144c-.336 0-.63.042-.882.126a1.845 1.845 0 00-.639.333 1.36 1.36 0 00-.378.522 1.666 1.666 0 00-.126.657c0 .306.084.561.252.765.174.204.402.378.684.522.282.144.603.273.963.387.36.114.729.237 1.107.369.378.126.747.276 1.107.45.36.168.681.384.963.648.282.258.507.576.675.954.174.378.261.837.261 1.377 0 .588-.102 1.14-.306 1.656-.198.51-.492.957-.882 1.341a4.196 4.196 0 01-1.413.9c-.558.216-1.197.324-1.917.324-.414 0-.822-.042-1.224-.126a6.311 6.311 0 01-1.161-.342 6.269 6.269 0 01-1.035-.54 5.012 5.012 0 01-.864-.702l.711-1.161a.71.71 0 01.234-.207.568.568 0 01.306-.09c.15 0 .312.063.486.189.174.12.381.255.621.405.24.15.519.288.837.414.324.12.711.18 1.161.18.69 0 1.224-.162 1.602-.486.378-.33.567-.801.567-1.413 0-.342-.087-.621-.261-.837a1.976 1.976 0 00-.675-.54 4.88 4.88 0 00-.963-.378c-.36-.102-.726-.213-1.098-.333a9.468 9.468 0 01-1.098-.432 3.557 3.557 0 01-.963-.657 3.054 3.054 0 01-.684-1.008c-.168-.408-.252-.909-.252-1.503 0-.474.093-.936.279-1.386.192-.45.468-.849.828-1.197.36-.348.804-.627 1.332-.837.528-.21 1.134-.315 1.818-.315.768 0 1.476.12 2.124.36.648.24 1.2.576 1.656 1.008l-.603 1.143zm10.396 1.413V19h-1.36c-.293 0-.48-.135-.557-.405l-.153-.738a5.052 5.052 0 01-1.251.936c-.456.234-.993.351-1.611.351-.504 0-.951-.084-1.341-.252a2.732 2.732 0 01-.972-.729 3.236 3.236 0 01-.603-1.107 4.849 4.849 0 01-.198-1.422V9.766h2.223v5.868c0 .564.129 1.002.387 1.314.264.306.657.459 1.179.459.384 0 .744-.084 1.08-.252a3.87 3.87 0 00.954-.711V9.766h2.223zm4.427 6.84c.252.306.525.522.819.648.3.126.624.189.972.189.336 0 .639-.063.909-.189s.498-.318.684-.576c.192-.258.339-.582.44-.972.103-.396.154-.861.154-1.395 0-.54-.045-.996-.135-1.368-.084-.378-.207-.684-.37-.918a1.467 1.467 0 00-.593-.513 1.808 1.808 0 00-.783-.162c-.462 0-.855.099-1.18.297-.323.192-.63.465-.917.819v4.14zm-.117-5.58a4.816 4.816 0 011.287-1.035c.48-.264 1.044-.396 1.692-.396a3 3 0 011.377.315c.42.21.78.516 1.08.918.306.396.54.888.702 1.476.168.582.252 1.251.252 2.007 0 .69-.093 1.329-.28 1.917a4.642 4.642 0 01-.8 1.53 3.67 3.67 0 01-1.251 1.017 3.65 3.65 0 01-1.638.36c-.516 0-.957-.078-1.323-.234a3.302 3.302 0 01-.981-.666v3.78h-2.223V9.766h1.359c.288 0 .477.135.567.405l.18.855zm14.073 2.295c0-.288-.042-.558-.126-.81a1.874 1.874 0 00-.36-.675 1.644 1.644 0 00-.62-.45 2.037 2.037 0 00-.865-.171c-.642 0-1.149.183-1.52.549-.367.366-.6.885-.703 1.557h4.194zm-4.239 1.341c.036.474.12.885.252 1.233.132.342.306.627.522.855.216.222.471.39.765.504.3.108.63.162.99.162s.67-.042.927-.126a4.14 4.14 0 00.684-.279c.198-.102.37-.195.513-.279a.885.885 0 01.432-.126c.186 0 .324.069.414.207l.64.81a3.804 3.804 0 01-.829.729 4.922 4.922 0 01-.963.468c-.33.114-.669.195-1.017.243a7.186 7.186 0 01-.999.072 4.995 4.995 0 01-1.79-.315 4.09 4.09 0 01-1.44-.945 4.49 4.49 0 01-.964-1.548c-.234-.618-.35-1.332-.35-2.142 0-.63.101-1.221.305-1.773a4.254 4.254 0 01.873-1.449 4.16 4.16 0 011.395-.981c.552-.24 1.173-.36 1.863-.36a4.52 4.52 0 011.611.279c.492.186.915.459 1.27.819.353.354.63.792.827 1.314.204.516.306 1.107.306 1.773 0 .336-.036.564-.108.684-.072.114-.21.171-.414.171H58.92zm10.003-3.294c.288-.552.63-.984 1.026-1.296a2.174 2.174 0 011.404-.477c.426 0 .768.093 1.026.279l-.144 1.665a.44.44 0 01-.135.234.358.358 0 01-.225.063c-.09 0-.225-.015-.405-.045a3.016 3.016 0 00-.513-.045c-.246 0-.465.036-.657.108a1.664 1.664 0 00-.522.315 2.18 2.18 0 00-.405.486 5.16 5.16 0 00-.324.657V19h-2.223V9.766h1.305c.228 0 .387.042.477.126.09.078.15.222.18.432l.135 1.044zm6.84 5.238c.252.306.525.522.82.648.3.126.614.189.944.189.342 0 .648-.06.918-.18.276-.126.51-.318.702-.576.192-.264.34-.597.441-.999.102-.408.153-.894.153-1.458 0-1.014-.168-1.746-.504-2.196-.336-.456-.819-.684-1.449-.684-.426 0-.798.099-1.116.297a3.57 3.57 0 00-.909.819v4.14zm0-5.706a4.53 4.53 0 011.233-.927c.456-.234.975-.351 1.557-.351.534 0 1.014.105 1.44.315.432.21.798.513 1.098.909.306.39.54.864.702 1.422.162.558.243 1.185.243 1.881a7.01 7.01 0 01-.279 2.043 4.698 4.698 0 01-.8 1.575 3.601 3.601 0 01-1.243 1.008c-.486.24-1.026.36-1.62.36-.288 0-.549-.03-.783-.09a2.767 2.767 0 01-1.197-.603 5.278 5.278 0 01-.468-.495l-.099.621c-.036.156-.099.267-.189.333a.555.555 0 01-.35.099h-1.468V5.626h2.223V10.9zm10.24-5.274V19H83.78V5.626h2.223zm6.301 3.996a5 5 0 011.863.333 4.038 4.038 0 011.44.945c.402.408.711.906.927 1.494.216.588.324 1.245.324 1.971 0 .732-.108 1.392-.324 1.98a4.209 4.209 0 01-.927 1.503 3.98 3.98 0 01-1.44.954 5 5 0 01-1.863.333c-.69 0-1.317-.111-1.88-.333a4.068 4.068 0 01-1.45-.954 4.384 4.384 0 01-.927-1.503c-.216-.588-.324-1.248-.324-1.98 0-.726.108-1.383.324-1.971a4.288 4.288 0 01.927-1.494 4.128 4.128 0 011.45-.945 5.096 5.096 0 011.88-.333zm0 7.803c.768 0 1.335-.258 1.701-.774.372-.516.558-1.272.558-2.268 0-.996-.186-1.755-.558-2.277-.366-.522-.933-.783-1.7-.783-.78 0-1.36.264-1.738.792-.372.522-.558 1.278-.558 2.268 0 .99.186 1.746.558 2.268.378.516.957.774 1.737.774zm9.555-3.267c.276 0 .516-.036.72-.108.204-.078.372-.183.504-.315a1.21 1.21 0 00.306-.477c.072-.186.108-.39.108-.612 0-.456-.138-.816-.414-1.08-.27-.27-.678-.405-1.224-.405-.546 0-.957.135-1.233.405-.27.264-.405.624-.405 1.08 0 .216.033.417.099.603.072.186.174.348.306.486.138.132.309.237.513.315.21.072.45.108.72.108zm2.511 5.256a.615.615 0 00-.162-.441 1.028 1.028 0 00-.441-.261 3.056 3.056 0 00-.657-.144 10.11 10.11 0 00-.792-.063 34.448 34.448 0 00-.864-.045 10.061 10.061 0 01-.864-.072c-.246.138-.447.3-.603.486a1.002 1.002 0 00-.108 1.098c.084.144.213.267.387.369.18.102.411.18.693.234.282.06.627.09 1.035.09.414 0 .771-.033 1.071-.099.3-.06.546-.147.738-.261.198-.108.342-.24.432-.396a.944.944 0 00.135-.495zm2.214-9.333v.828c0 .264-.159.426-.477.486l-.828.153c.126.318.189.666.189 1.044a2.716 2.716 0 01-1.035 2.178 3.624 3.624 0 01-1.152.603 4.709 4.709 0 01-1.422.207 4.9 4.9 0 01-.522-.027 6.55 6.55 0 01-.495-.072c-.288.174-.432.369-.432.585 0 .186.084.324.252.414.174.084.402.144.684.18.282.036.603.06.963.072.36.006.729.024 1.107.054s.747.084 1.107.162c.36.072.681.189.963.351.282.162.507.384.675.666.174.276.261.633.261 1.071 0 .408-.102.804-.306 1.188a3.119 3.119 0 01-.873 1.026c-.378.3-.846.54-1.404.72-.552.186-1.182.279-1.89.279-.696 0-1.302-.069-1.818-.207-.516-.132-.945-.312-1.287-.54-.342-.222-.597-.48-.765-.774a1.825 1.825 0 01-.252-.918c0-.432.129-.792.387-1.08.264-.294.624-.528 1.08-.702a1.55 1.55 0 01-.585-.504c-.144-.21-.216-.486-.216-.828 0-.138.024-.279.072-.423.054-.15.129-.297.225-.441.102-.144.228-.279.378-.405.15-.132.327-.249.53-.351a2.949 2.949 0 01-1.106-1.008c-.264-.42-.396-.912-.396-1.476 0-.456.09-.867.27-1.233.186-.372.44-.687.765-.945.33-.264.717-.465 1.161-.603.45-.138.939-.207 1.467-.207.396 0 .768.042 1.116.126.348.078.666.195.954.351h2.655zM6.94 14.036c-.233.624-.43 1.2-.606 1.783.96-.697 2.101-1.139 3.418-1.304 2.513-.314 4.746-1.973 5.876-4.058l-1.456-1.455 1.413-1.415 1-1.001c.43-.43.915-1.224 1.428-2.368-5.593.867-9.018 4.292-11.074 9.818h.001zM17 9.001L18 10c-1 3-4 6-8 6.5-2.669.334-4.336 2.167-5.002 5.5H3C4 16 6 2 21 2c-1 2.997-1.998 4.996-2.997 5.997L17 9.001z" fill="#000"/></svg>