<svg width="1374" height="926" fill="none" xmlns="http://www.w3.org/2000/svg"><path d="M849.798 341.392l1.469-.925c2.083-1.312 4.842-.236 5.486 2.141v0a3.662 3.662 0 005.044 2.378l.629-.285a3.251 3.251 0 014.551 2.453v0a3.25 3.25 0 004.551 2.452l2.862-1.295" stroke="#D6E1E8" stroke-width="3.09" stroke-linecap="round"/><path d="M1261.93 246.637l-.04-2.328c-.04-2.491 2.13-4.444 4.6-4.136l1.15.142a4.088 4.088 0 004.56-3.556l.17-1.351c.3-2.39 2.61-3.99 4.95-3.431v0a4.03 4.03 0 004.94-3.43l.43-3.435M1162.07 749.1l2.06-1.089c2.2-1.165 4.92-.11 5.77 2.234l.39 1.088a4.084 4.084 0 005.23 2.468l1.28-.46a4.043 4.043 0 015.3 2.864v0a4.037 4.037 0 005.29 2.864l3.26-1.17M1342.07 413.1l2.06-1.089c2.2-1.165 4.92-.11 5.77 2.234l.39 1.088a4.084 4.084 0 005.23 2.468l1.28-.46a4.043 4.043 0 015.3 2.864v0a4.037 4.037 0 005.29 2.864l3.26-1.17" stroke="#D6E1E8" stroke-width="4.093" stroke-linecap="round"/><path d="M289.863 693.92l-.007-3.197a4.092 4.092 0 014.663-4.062l2.359.331a4.093 4.093 0 004.623-3.483l.352-2.505a4.093 4.093 0 015.067-3.396l.96.246a4.093 4.093 0 005.067-3.396l.61-4.34M365.992 817.97l-3.186-.261a4.095 4.095 0 01-3.657-4.988l.529-2.323a4.094 4.094 0 00-3.084-4.899l-2.466-.561a4.092 4.092 0 01-2.958-5.334l.325-.936a4.094 4.094 0 00-2.959-5.335l-4.274-.972" stroke="#D6E1E8" stroke-width="3.09" stroke-linecap="round"/><path d="M27.807 116.549l.965-2.592a2.053 2.053 0 012.906-1.087l2.494 1.356a2.053 2.053 0 002.785-.822l1.392-2.558a2.053 2.053 0 012.978-.704l1.629 1.136c1.004.7 2.393.372 2.978-.703l1.68-3.086" stroke="#D6E1E8" stroke-width="2.053" stroke-linecap="round"/><path d="M1101.61 539.688l1.64-1.788a4.09 4.09 0 016.18.169l.82.997a4.091 4.091 0 005.76.568l1.11-.912c1.88-1.547 4.7-1.111 6.03.934v0a4.094 4.094 0 006.03.934l2.71-2.226" stroke="#D6E1E8" stroke-width="4.093" stroke-linecap="round"/><circle r="2.5" transform="matrix(-1 0 0 1 1001.47 453)" fill="#D6E1E8" stroke="#D6E1E8"/><circle r="2.5" transform="matrix(-1 0 0 1 876.469 731)" fill="#D6E1E8" stroke="#D6E1E8"/><path d="M1061.47 242v16m8-8h-16M875.469 202v16m8-8h-16M1365.47 148v16m8-8h-16M1077.47 651v16m8-8h-16M756.469 667v16m8-8h-16M611.469 879v16m8-8h-16M31.469 895v16m8-8h-16M1349.47 744v16m8-8h-16" stroke="#D6E1E8" stroke-width="4"/><circle cx="701.469" cy="34" r="3.5" fill="#D6E1E8" stroke="#D6E1E8"/><circle cx="783.469" cy="431" r="6.5" fill="#D6E1E8" stroke="#D6E1E8"/><circle cx="574.469" cy="350" r="6.5" fill="#D6E1E8" stroke="#D6E1E8"/><circle cx="1234.47" cy="352" r="5.5" fill="#D6E1E8" stroke="#D6E1E8"/><circle cx="1167.47" cy="920" r="5.5" fill="#D6E1E8" stroke="#D6E1E8"/><circle cx="664.469" cy="753" r="5.5" fill="#D6E1E8" stroke="#D6E1E8"/><circle cx="964.469" cy="808" r="6.5" fill="#D6E1E8" stroke="#D6E1E8"/><circle cx="826.469" cy="812" r="9" stroke="#D6E1E8" stroke-width="4"/><circle cx="630.469" cy="523" r="9" stroke="#D6E1E8" stroke-width="4"/><circle cx="837.469" cy="30" r="6.5" stroke="#D6E1E8" stroke-width="3"/><circle cx="537.469" cy="57" r="6.5" stroke="#D6E1E8" stroke-width="3"/><circle cx="118.469" cy="325" r="4.5" fill="#D6E1E8" stroke="#D6E1E8"/><path d="M969.789 126.416c.432-.016.76-.064.984-.144.224-.096.4-.288.528-.576s.192-.744.192-1.368v-11.496h-1.104c-.944.016-1.672.336-2.184.96-.512.624-.768 1.568-.768 2.832h-1.584l.12-5.424h14.544l.144 5.424h-1.584c0-1.264-.264-2.216-.792-2.856-.512-.656-1.232-.976-2.16-.96h-1.152v11.256c0 1.072-.032 1.792-.096 2.16a21.68 21.68 0 011.92-.072V128h-7.008v-1.584zM732.762 251.023c.331.279.606.463.825.554.231.08.49.056.779-.072.288-.127.641-.422 1.06-.884l7.721-8.518-.818-.742c-.71-.622-1.464-.873-2.263-.755-.798.119-1.622.646-2.471 1.583l-1.173-1.064 3.731-3.938 10.776 9.767-3.536 4.116-1.173-1.064c.848-.937 1.292-1.819 1.331-2.648.061-.83-.258-1.551-.956-2.162l-.853-.774-7.56 8.34c-.72.794-1.227 1.306-1.522 1.536.424.319.914.731 1.471 1.236l-1.241 1.369-5.192-4.706 1.064-1.174z" fill="#D6E1E8"/><path d="M993.097 589.224c.885-.644 1.945-1.057 3.186-1.213 2.684-.335 5.047-2.099 6.257-4.316l.17-.328-.26-.264-1.1-1.101 1.06-1.062h0l1-1v-.001c.49-.497 1.01-1.36 1.53-2.516l.37-.84-.9.141c-2.89.447-5.238 1.559-7.129 3.287-1.886 1.723-3.295 4.036-4.342 6.851l-.251.674h.008c-.135.385-.258.76-.372 1.138l-.429 1.422 1.202-.872zm10.023-7.576l-.36.353.36.354.77.775c-1.04 2.739-3.82 5.416-7.483 5.874h0c-1.442.18-2.639.772-3.56 1.785-.841.925-1.427 2.173-1.784 3.711h-1.004c.504-3.04 1.297-7.598 3.591-11.496 2.342-3.982 6.251-7.283 13.12-7.493-.92 2.609-1.81 4.292-2.65 5.133l-1 1.004zM534.957 682.146c-1.026-.383-1.956-1.038-2.771-1.986-1.762-2.053-4.54-3.053-7.051-2.831l-.372.033-.074.366-.31 1.528-1.47-.298h0l-1.386-.281h-.001c-.688-.14-1.692-.092-2.943.114l-.908.15.62.68c1.966 2.159 4.189 3.502 6.674 4.124 2.478.622 5.184.518 8.109-.163l.701-.163-.004-.007c.396-.1.776-.205 1.154-.318l1.422-.428-1.39-.52zm-11.849-4.168l.49.099.099-.49.218-1.076c2.857-.647 6.627.198 9.03 2.997h0c.947 1.103 2.102 1.774 3.455 1.982 1.235.191 2.599-.01 4.078-.562l.555.837c-2.813 1.259-7.051 3.114-11.568 3.355-4.612.246-9.523-1.19-13.489-6.797 2.682-.675 4.576-.862 5.741-.627l1.391.282zM116.264 757.172c-1.026-.384-1.956-1.038-2.771-1.987-1.761-2.052-4.54-3.053-7.051-2.83l-.372.033-.074.366-.31 1.527-1.47-.297h0l-1.386-.281h-.001c-.688-.14-1.692-.093-2.943.114l-.908.149.62.681c1.966 2.158 4.19 3.501 6.674 4.124 2.479.621 5.184.518 8.109-.164l.701-.163-.004-.006a27.58 27.58 0 001.154-.319l1.423-.427-1.391-.52zm-11.849-4.169l.49.099.099-.49.218-1.075c2.857-.648 6.627.197 9.03 2.997h.001c.946 1.102 2.101 1.773 3.454 1.982 1.235.19 2.599-.01 4.078-.563l.555.838c-2.813 1.258-7.051 3.114-11.567 3.355-4.613.246-9.524-1.191-13.49-6.797 2.682-.676 4.577-.863 5.741-.627l1.391.281zM225.704 888.537c.371-1.029 1.016-1.967 1.955-2.792 2.032-1.786 3-4.575 2.749-7.084l-.037-.371-.367-.07-1.531-.292.281-1.474h0l.265-1.389v-.001c.132-.69.073-1.693-.147-2.941l-.161-.907-.673.628c-2.136 1.991-3.453 4.229-4.047 6.721-.593 2.485-.459 5.19.256 8.107l.171.699.006-.005c.105.395.214.774.332 1.151l.444 1.417.504-1.397zm4.033-11.895l-.094.491.491.094 1.078.205c.68 2.849-.121 6.629-2.893 9.064h0c-1.092.96-1.75 2.122-1.943 3.477-.176 1.238.04 2.599.609 4.072l-.831.564c-1.29-2.799-3.194-7.014-3.487-11.528-.298-4.61 1.082-9.536 6.642-13.567.707 2.675.916 4.567.693 5.734l-.265 1.394zM47.798 232.154c-.446-.999-.632-2.122-.528-3.368.227-2.695-1.01-5.376-2.93-7.01l-.285-.242-.313.204-1.305.851-.82-1.256h0l-.773-1.185s0 0 0 0c-.383-.589-1.122-1.271-2.146-2.017l-.744-.542-.05.919c-.158 2.915.445 5.442 1.745 7.649 1.296 2.202 3.268 4.057 5.806 5.663l.608.385.002-.007c.349.211.69.409 1.037.599l1.302.713-.606-1.356zm-5.343-11.367l.273.419.42-.273.918-.6c2.466 1.581 4.51 4.861 4.201 8.537h0c-.121 1.448.21 2.742 1.011 3.852.732 1.014 1.832 1.845 3.263 2.512l-.207.983c-2.871-1.122-7.166-2.839-10.507-5.889-3.412-3.114-5.834-7.62-4.622-14.38 2.363 1.437 3.826 2.655 4.475 3.65l.775 1.189zM293.135 533c-.446-.999-.632-2.122-.528-3.368.226-2.695-1.01-5.376-2.931-7.01l-.285-.242-.312.204-1.306.851-.819-1.256h0l-.773-1.185s0 0 0 0c-.384-.589-1.122-1.271-2.147-2.017l-.743-.542-.05.919c-.159 2.915.445 5.442 1.744 7.649 1.296 2.202 3.269 4.057 5.806 5.663l.608.385.002-.007c.349.211.691.409 1.037.599l1.302.713-.605-1.356zm-5.343-11.367l.273.419.419-.273.919-.6c2.466 1.581 4.509 4.861 4.201 8.537h0c-.122 1.448.21 2.742 1.011 3.852.731 1.014 1.831 1.845 3.263 2.512l-.208.983c-2.871-1.122-7.166-2.84-10.507-5.889-3.412-3.114-5.833-7.62-4.622-14.38 2.364 1.437 3.826 2.655 4.476 3.65l.775 1.189zM293.135 335c-.446-.999-.632-2.122-.528-3.368.226-2.695-1.01-5.376-2.931-7.01l-.285-.242-.312.204-1.306.851-.819-1.256h0l-.773-1.185s0 0 0 0c-.384-.589-1.122-1.271-2.147-2.017l-.743-.542-.05.919c-.159 2.915.445 5.442 1.744 7.649 1.296 2.202 3.269 4.057 5.806 5.663l.608.385.002-.007c.349.211.691.409 1.037.599l1.302.713-.605-1.356zm-5.343-11.367l.273.419.419-.273.919-.6c2.466 1.581 4.509 4.861 4.201 8.537h0c-.122 1.448.21 2.742 1.011 3.852.731 1.014 1.831 1.845 3.263 2.512l-.208.983c-2.871-1.122-7.166-2.84-10.507-5.889-3.412-3.114-5.833-7.62-4.622-14.38 2.364 1.437 3.826 2.655 4.476 3.65l.775 1.189zM198.736 163.279c.419-1.012 1.107-1.918 2.084-2.698 2.114-1.687 3.213-4.428 3.08-6.946l-.02-.373-.363-.087-1.515-.364.35-1.458h0l.33-1.376s0 0 0 0c.164-.683.153-1.688-.009-2.946l-.117-.913-.702.595c-2.227 1.888-3.649 4.063-4.36 6.523-.709 2.455-.702 5.163-.126 8.11l.138.706.007-.004c.086.4.177.783.277 1.166l.376 1.436.57-1.371zm4.588-11.693l-.116.487.486.116 1.067.256c.545 2.878-.434 6.616-3.317 8.918h0c-1.136.907-1.847 2.037-2.104 3.381-.235 1.228-.083 2.599.416 4.096l-.857.525c-1.157-2.857-2.86-7.157-2.939-11.68-.082-4.619 1.529-9.475 7.274-13.239.579 2.705.698 4.605.422 5.761l-.332 1.379zM338.135 60c-.446-1-.632-2.122-.528-3.368.226-2.695-1.01-5.376-2.931-7.01l-.285-.242-.312.204-1.306.851-.819-1.256h0l-.773-1.185s0 0 0 0c-.384-.589-1.122-1.271-2.147-2.017l-.743-.542-.05.919c-.159 2.915.445 5.442 1.744 7.649 1.296 2.202 3.269 4.057 5.806 5.663l.608.385.002-.007c.349.211.691.409 1.037.599l1.302.713-.605-1.356zm-5.343-11.367l.273.419.419-.273.919-.6c2.466 1.581 4.509 4.86 4.201 8.537h0c-.122 1.448.21 2.742 1.011 3.852.731 1.014 1.831 1.845 3.263 2.512l-.208.983c-2.871-1.122-7.166-2.84-10.507-5.889-3.412-3.114-5.833-7.62-4.622-14.38 2.364 1.437 3.826 2.655 4.476 3.65l.775 1.189zM1030.14 17c-.45-1-.64-2.122-.53-3.368.22-2.695-1.01-5.376-2.93-7.01l-.29-.242-.31.204-1.31.851-.82-1.256h0l-.77-1.185s0 0 0 0c-.38-.589-1.12-1.271-2.15-2.017l-.74-.542-.05.919c-.16 2.915.45 5.442 1.75 7.649 1.29 2.202 3.26 4.057 5.8 5.663l.61.385v-.007c.35.211.69.409 1.04.599l1.3.713-.6-1.356zm-5.35-11.367l.27.419.42-.273.92-.6c2.47 1.581 4.51 4.86 4.2 8.537h0c-.12 1.448.21 2.742 1.02 3.852.73 1.014 1.83 1.845 3.26 2.512l-.21.983c-2.87-1.122-7.17-2.84-10.51-5.889-3.41-3.114-5.83-7.62-4.62-14.38 2.36 1.437 3.83 2.655 4.48 3.65l.77 1.189zM1278.13 130c-.44-.999-.63-2.122-.52-3.368.22-2.695-1.01-5.376-2.93-7.01l-.29-.242-.31.204-1.31.851-.82-1.256h0l-.77-1.185s0 0 0 0c-.38-.589-1.12-1.271-2.15-2.017l-.74-.542-.05.919c-.16 2.915.45 5.442 1.75 7.649 1.29 2.202 3.26 4.057 5.8 5.663l.61.385v-.007c.35.211.69.409 1.04.599l1.3.713-.61-1.356zm-5.34-11.367l.27.419.42-.273.92-.6c2.47 1.581 4.51 4.861 4.2 8.537h0c-.12 1.448.21 2.742 1.01 3.852.74 1.014 1.84 1.845 3.27 2.512l-.21.983c-2.87-1.122-7.17-2.839-10.51-5.889-3.41-3.114-5.83-7.62-4.62-14.38 2.36 1.437 3.83 2.655 4.48 3.65l.77 1.189z" fill="#D6E1E8" stroke="#D6E1E8"/><path d="M27.409 593.966c-.194.398-.309.717-.344.957-.022.249.067.5.265.754s.58.532 1.142.832l10.375 5.537.531-.996c.44-.86.502-1.671.186-2.433-.317-.763-1.045-1.449-2.186-2.057l.763-1.43 4.837 2.721-7.005 13.125-4.964-2.483.763-1.429c1.14.609 2.127.829 2.959.661.838-.146 1.474-.642 1.906-1.487l.555-1.04-10.158-5.421c-.967-.516-1.601-.892-1.903-1.127a22.01 22.01 0 01-.86 1.767l-1.667-.89 3.375-6.324 1.43.763zM507.459 759.037c.434.309.79.508 1.069.598.29.074.606.018.947-.167.341-.185.746-.582 1.214-1.192l8.621-11.225-1.078-.828c-.933-.693-1.884-.926-2.852-.701-.968.225-1.926.955-2.874 2.19l-1.547-1.188 4.185-5.207 14.202 10.908-3.927 5.404-1.547-1.188c.948-1.234 1.404-2.362 1.369-3.383-.008-1.024-.471-1.877-1.39-2.557l-1.124-.864-8.442 10.991c-.804 1.047-1.375 1.726-1.714 2.038.552.349 1.195.805 1.929 1.369l-1.386 1.805-6.843-5.256 1.188-1.547zM1084.46 374.037c.43.309.79.508 1.07.598.29.074.6.018.95-.167.34-.185.74-.582 1.21-1.192l8.62-11.225-1.08-.828c-.93-.693-1.88-.926-2.85-.701-.97.225-1.93.955-2.87 2.19l-1.55-1.188 4.18-5.207 14.21 10.908-3.93 5.404-1.55-1.188c.95-1.234 1.41-2.362 1.37-3.383-.01-1.024-.47-1.877-1.39-2.557l-1.12-.864-8.45 10.991c-.8 1.047-1.37 1.726-1.71 2.038.55.349 1.2.805 1.93 1.369l-1.39 1.805-6.84-5.256 1.19-1.547zM422.459 448.037c.434.309.79.508 1.069.598.291.074.606.018.947-.167.341-.185.746-.582 1.214-1.192l8.622-11.225-1.079-.828c-.933-.693-1.884-.926-2.852-.701-.968.225-1.926.955-2.874 2.19l-1.547-1.188 4.185-5.207 14.202 10.908-3.927 5.404-1.547-1.188c.948-1.234 1.404-2.362 1.369-3.383-.008-1.024-.471-1.877-1.389-2.557l-1.125-.864-8.442 10.991c-.804 1.047-1.375 1.726-1.714 2.038.552.349 1.195.805 1.929 1.369l-1.386 1.805-6.843-5.256 1.188-1.547zM163.459 590.037c.434.309.79.508 1.069.598.291.074.606.018.947-.167.341-.185.746-.582 1.214-1.192l8.622-11.225-1.079-.828c-.933-.693-1.884-.926-2.852-.701-.968.225-1.926.955-2.874 2.19l-1.547-1.188 4.185-5.207 14.202 10.908-3.927 5.404-1.547-1.188c.948-1.234 1.404-2.362 1.369-3.383-.008-1.024-.471-1.877-1.389-2.557l-1.125-.864-8.442 10.991c-.804 1.047-1.375 1.726-1.714 2.038.552.349 1.195.805 1.929 1.369l-1.386 1.805-6.843-5.256 1.188-1.547z" fill="#D6E1E8"/><path stroke="#D6E1E8" stroke-width="3" d="M1171.33 46l4.011 7.86-7.86 4.012-4.012-7.86z"/><path stroke="#D6E1E8" stroke-width="2" d="M25.465 362.136l4.011 7.86-7.86 4.012-4.012-7.86zM183.329 446l4.011 7.86-7.86 4.012-4.012-7.86zM438.329 577l4.011 7.86-7.86 4.012-4.012-7.86zM713.329 313l4.011 7.86-7.86 4.012-4.012-7.86zM127.329 42l4.011 7.86-7.86 4.012-4.012-7.86zM794.329 120l4.011 7.86-7.86 4.012-4.012-7.86zM1254.33 489l4.011 7.86-7.86 4.012-4.012-7.86zM1337.33 879l4.011 7.86-7.86 4.012-4.012-7.86z"/><path stroke="#D6E1E8" stroke-width="3" d="M1231.46 626.136l4.011 7.86-7.86 4.012-4.012-7.86z"/><path stroke="#D6E1E8" stroke-width="2" d="M842.951 535l2.797 5.482-5.481 2.797-2.798-5.482z"/></svg>